HIERARCHY
ROOT Hips
{
	OFFSET 0.000000 0.000000 0.000000
	CHANNELS 6 Xposition Yposition Zposition Zrotation Yrotation Xrotation 
	JOINT LeftUpLeg_virtual
	{
		OFFSET 0.000000 0.000000 0.000000
		CHANNELS 3 Zrotation Yrotation Xrotation
		JOINT LeftUpLeg
		{
			OFFSET 8.479694 -4.795517 -0.379053
			CHANNELS 3 Zrotation Yrotation Xrotation
			JOINT LeftLeg
			{
				OFFSET 0.485052 -32.551468 0.112863
				CHANNELS 3 Zrotation Yrotation Xrotation
				JOINT LeftFoot
				{
					OFFSET 0.438033 -32.635670 -3.012641
					CHANNELS 3 Zrotation Yrotation Xrotation
					JOINT LeftToeBase
					{
						OFFSET 0.970169 -13.225353 11.864223
						CHANNELS 3 Zrotation Yrotation Xrotation
						End Site
						{
							OFFSET 0.000000 0.000000 0.000000
						}
					}
				}
			}
		}
	}
	JOINT RightUpLeg_virtual
	{
		OFFSET 0.000000 0.000000 0.000000
		CHANNELS 3 Zrotation Yrotation Xrotation
		JOINT RightUpLeg
		{
			OFFSET -8.479694 -4.795517 -0.379053
			CHANNELS 3 Zrotation Yrotation Xrotation
			JOINT RightLeg
			{
				OFFSET -0.484100 -32.551483 0.112903
				CHANNELS 3 Zrotation Yrotation Xrotation
				JOINT RightFoot
				{
					OFFSET -0.438985 -32.635651 -3.012681
					CHANNELS 3 Zrotation Yrotation Xrotation
					JOINT RightToeBase
					{
						OFFSET -0.970169 -13.225354 11.864223
						CHANNELS 3 Zrotation Yrotation Xrotation
						End Site
						{
							OFFSET 0.000000 0.000000 0.000000
						}
					}
				}
			}
		}
	}
	JOINT Spine_virtual
	{
		OFFSET 0.000000 0.000000 0.000000
		CHANNELS 3 Zrotation Yrotation Xrotation
		JOINT Spine
		{
			OFFSET 0.000000 7.722015 1.166203
			CHANNELS 3 Zrotation Yrotation Xrotation
			JOINT Spine1
			{
				OFFSET 0.000000 12.024086 0.248766
				CHANNELS 3 Zrotation Yrotation Xrotation
				JOINT Spine2
				{
					OFFSET -0.000000 11.503036 -0.491240
					CHANNELS 3 Zrotation Yrotation Xrotation
					JOINT Neck_virtual
					{
						OFFSET 0.000000 0.000000 0.000000
						CHANNELS 3 Zrotation Yrotation Xrotation
						JOINT Neck
						{
							OFFSET 0.000000 18.430687 -3.123054
							CHANNELS 3 Zrotation Yrotation Xrotation
							JOINT Head
							{
								OFFSET -0.000000 9.051071 1.034021
								CHANNELS 3 Zrotation Yrotation Xrotation
								End Site
								{
									OFFSET 0.000000 0.000000 0.000000
								}
							}
						}
					}
					JOINT LeftShoulder_virtual
					{
						OFFSET 0.000000 0.000000 0.000000
						CHANNELS 3 Zrotation Yrotation Xrotation
						JOINT LeftShoulder
						{
							OFFSET 6.197824 13.665230 -4.064723
							CHANNELS 3 Zrotation Yrotation Xrotation
							JOINT LeftArm
							{
								OFFSET 7.778132 -0.187073 -1.709282
								CHANNELS 3 Zrotation Yrotation Xrotation
								JOINT LeftForeArm
								{
									OFFSET 21.954697 0.000000 -2.041093
									CHANNELS 3 Zrotation Yrotation Xrotation
									JOINT LeftHand
									{
										OFFSET 22.992908 0.000000 -0.870901
										CHANNELS 3 Zrotation Yrotation Xrotation
										End Site
										{
											OFFSET 0.000000 0.000000 0.000000
										}
									}
								}
							}
						}
					}
					JOINT RightShoulder_virtual
					{
						OFFSET 0.000000 0.000000 0.000000
						CHANNELS 3 Zrotation Yrotation Xrotation
						JOINT RightShoulder
						{
							OFFSET -6.197824 13.665230 -4.064723
							CHANNELS 3 Zrotation Yrotation Xrotation
							JOINT RightArm
							{
								OFFSET -7.778132 -0.187073 -1.709282
								CHANNELS 3 Zrotation Yrotation Xrotation
								JOINT RightForeArm
								{
									OFFSET -21.954697 0.000000 -2.041093
									CHANNELS 3 Zrotation Yrotation Xrotation
									JOINT RightHand
									{
										OFFSET -22.992908 0.000000 -0.870901
										CHANNELS 3 Zrotation Yrotation Xrotation
										End Site
										{
											OFFSET 0.000000 0.000000 0.000000
										}
									}
								}
							}
						}
					}
				}
			}
		}
	}
}
MOTION
Frames: 11
Frame Time: 0.033333
-44.599487 80.708748 78.060379 179.842774 9.411853 179.984159 -3.475636 -4.112417 5.031431 1.010348 9.160161 -23.355612 7.863652 6.310029 32.486821 -1.636633 -9.159673 -9.486293 0.000000 0.000000 0.000000 -1.201943 -3.614456 4.695038 -1.430402 3.200206 -23.069492 -0.163860 7.872366 33.171435 9.407161 5.678818 -9.852509 0.000000 0.000000 0.000000 2.054539 -0.895561 -8.236004 -2.645914 -2.598464 -4.676722 0.798266 -2.667635 6.126946 0.010839 0.031916 0.025017 -0.455369 -0.416303 11.096003 -5.637344 -1.129936 2.429205 0.000000 0.000000 0.000000 2.021039 0.385184 8.111046 -16.490561 18.421456 -14.523651 -64.167585 -1.294264 -94.948543 18.070121 4.975748 18.754784 0.000000 0.000000 0.000000 -2.495876 1.617908 7.595188 21.953843 11.900648 4.503918 45.781884 -8.219649 18.035646 -3.255894 30.509909 -1.301199 0.000000 0.000000 0.000000 
-44.573246 80.796730 78.094681 179.806233 9.130196 179.961032 -3.610657 -3.359468 5.346264 1.178097 9.660530 -23.507764 7.401383 6.555841 32.824086 -1.602491 -9.195736 -9.774161 0.000000 0.000000 0.000000 -1.278743 -2.757996 5.150489 -1.581457 3.617816 -22.984111 -0.279920 8.136648 32.490609 9.254657 5.605351 -9.673575 0.000000 0.000000 0.000000 2.195611 -0.287452 -7.624852 -2.824280 -2.664721 -4.815388 0.879286 -2.830185 6.015356 0.093689 0.034361 0.009937 -0.336949 -0.796378 10.769925 -5.680565 -1.158044 1.789243 0.000000 0.000000 0.000000 2.136827 0.105247 8.055812 -16.093522 16.432645 -13.757113 -64.728576 -2.463795 -89.162082 18.180871 4.572731 18.995668 0.000000 0.000000 0.000000 -2.415061 1.345265 7.478890 21.651811 11.106663 4.429501 46.605731 -9.169786 18.149281 -3.180750 30.491768 -1.135808 0.000000 0.000000 0.000000 
-44.309273 80.902252 78.218918 -179.989323 9.041867 179.962985 -3.758660 -2.282850 5.404702 1.836306 10.442390 -23.820396 6.985173 6.249425 32.737349 -2.244209 -9.844418 -9.564958 0.000000 0.000000 0.000000 -1.121736 -1.784688 5.453439 -1.314708 3.555890 -22.948807 -0.280460 7.849174 32.113985 8.567839 5.237561 -9.599613 0.000000 0.000000 0.000000 2.424248 0.505722 -7.072149 -2.696556 -2.688280 -5.036601 1.009499 -3.002170 6.083308 0.008121 -0.006649 0.001366 -0.119636 -1.093897 10.744675 -5.622376 -1.162728 0.724925 0.000000 0.000000 0.000000 2.360925 -0.173730 8.098180 -15.137412 12.986099 -12.112504 -65.722990 -2.202741 -75.642200 16.257500 0.389057 18.636494 0.000000 0.000000 0.000000 -2.320872 1.155380 7.570630 20.935570 9.730124 4.193174 48.222444 -10.108175 18.035987 -3.173575 30.821656 -1.155216 0.000000 0.000000 0.000000 
-43.779247 81.002785 78.358284 -179.998557 8.883360 179.976400 -3.843293 -1.517289 5.436668 2.454662 11.007175 -23.962508 6.529967 6.043028 32.451608 -2.978613 -10.314096 -8.887322 0.000000 0.000000 0.000000 -0.995123 -1.252025 5.645532 -1.074282 3.161013 -22.997117 -0.137101 7.642032 31.927207 8.009858 5.220270 -9.439753 0.000000 0.000000 0.000000 2.436129 1.198820 -6.855265 -2.474470 -2.512351 -5.228234 0.980189 -3.123654 6.357834 0.005120 -0.081793 -0.004806 0.105322 -1.038023 10.979718 -5.483237 -1.117767 -0.620485 0.000000 0.000000 0.000000 2.548660 -0.314077 8.433634 -14.019124 8.832987 -9.874372 -66.861480 0.329128 -54.246530 12.946244 -6.449934 18.011007 0.000000 0.000000 0.000000 -2.232120 1.050278 7.817019 20.077274 7.866480 3.829827 50.545968 -10.252308 17.748984 -3.286625 31.298372 -1.456602 0.000000 0.000000 0.000000 
-43.014923 81.079483 78.452217 179.924791 9.446827 179.959666 -3.928055 -0.704328 5.448079 3.175517 11.440321 -23.945530 6.174372 5.823870 32.185757 -3.642339 -10.603023 -8.227017 0.000000 0.000000 0.000000 -0.796387 -0.222507 5.719727 -0.663570 1.787385 -23.000910 -0.012966 7.352966 31.920329 7.635807 5.558076 -9.497796 0.000000 0.000000 0.000000 2.255048 2.173746 -6.889447 -2.148638 -2.058433 -5.236735 0.939869 -3.063775 6.841785 0.068058 -0.035981 0.020558 0.083716 -1.080038 11.398202 -5.258097 -1.433071 -1.896775 0.000000 0.000000 0.000000 2.468984 -0.456456 8.809998 -13.084337 4.692019 -7.560470 -66.758692 5.058307 -28.548169 9.494062 -13.137821 17.823232 0.000000 0.000000 0.000000 -2.410379 0.970496 8.223796 19.455473 5.800504 3.478309 52.925073 -9.777044 17.399697 -3.523656 31.515203 -2.060810 0.000000 0.000000 0.000000 
-42.066719 81.138275 78.546059 -179.972356 10.033481 179.990033 -3.925209 -0.152866 5.555984 4.118800 11.431163 -23.815265 5.940764 5.430770 31.692279 -4.106178 -10.576790 -7.853293 0.000000 0.000000 0.000000 -0.872391 0.340466 5.876649 0.116560 1.308665 -23.089933 0.202211 6.824807 31.732820 7.169445 5.775744 -9.276548 0.000000 0.000000 0.000000 1.983819 2.880040 -7.117117 -1.683581 -1.477090 -5.072206 0.864151 -2.941148 7.387323 0.041163 -0.012824 -0.009420 -0.064842 -1.075143 11.854205 -5.032738 -1.715487 -3.106667 0.000000 0.000000 0.000000 2.242562 -0.435927 9.297160 -12.268288 1.400125 -5.355657 -64.084489 8.461880 -6.904338 6.663788 -17.551192 17.753893 0.000000 0.000000 0.000000 -2.692156 1.074063 8.625328 19.359538 3.519628 3.145993 55.136965 -8.958156 16.789450 -3.783865 31.539358 -2.688340 0.000000 0.000000 0.000000 
-41.003208 81.170296 78.576820 179.844454 10.889979 179.997792 -4.146595 0.169364 5.890316 5.009291 11.089466 -23.663621 5.798753 5.187124 31.056300 -4.305983 -10.190508 -7.609147 0.000000 0.000000 0.000000 -1.105895 0.435517 6.065000 0.933978 0.940742 -23.359479 0.424464 6.376496 31.758710 6.876627 6.189828 -9.033350 0.000000 0.000000 0.000000 1.548777 3.170038 -7.288763 -1.356704 -0.749750 -4.787058 0.597424 -2.695013 7.954995 -0.001962 0.029816 -0.008463 -0.157882 -0.889029 12.110651 -4.804151 -1.770276 -4.164210 0.000000 0.000000 0.000000 2.059619 -0.278133 9.552728 -11.449572 -0.842384 -3.538552 -60.763241 8.935399 6.091993 4.711353 -20.783931 17.436407 0.000000 0.000000 0.000000 -2.909659 1.318995 8.888761 19.845996 1.168803 2.763727 57.129085 -8.172953 15.769877 -4.057937 31.350992 -3.363051 0.000000 0.000000 0.000000 
-39.864624 81.159988 78.584122 179.890258 11.237690 179.994800 -4.225667 -0.075934 6.379618 5.978944 10.617163 -23.594127 5.703413 4.469327 30.503823 -4.386211 -9.747360 -7.553738 0.000000 0.000000 0.000000 -1.166325 -0.147766 6.380863 1.774726 1.114975 -23.710783 0.598855 6.001325 31.791775 6.513960 6.496009 -8.874117 0.000000 0.000000 0.000000 1.304986 2.831590 -7.127829 -1.065043 -0.115971 -4.482163 0.310106 -2.510906 8.361497 0.016729 -0.005770 0.017972 -0.386932 -0.565634 12.168181 -4.505959 -2.075481 -4.894123 0.000000 0.000000 0.000000 1.662436 -0.092505 9.554598 -10.583779 -2.124539 -2.238844 -58.338551 7.253714 10.688394 3.979161 -21.503613 16.715918 0.000000 0.000000 0.000000 -3.168431 1.500188 8.962100 21.029543 -0.992680 2.386445 58.772569 -7.414494 14.572878 -4.237143 31.061825 -3.985542 0.000000 0.000000 0.000000 
-38.748226 81.143295 78.620644 179.880764 11.367255 179.996399 -4.214674 -0.543789 7.181354 6.937963 9.574805 -23.766436 5.638225 4.304746 29.917110 -4.254635 -9.101853 -7.382312 0.000000 0.000000 0.000000 -1.095766 -0.571365 6.886754 2.536060 1.150251 -24.093250 0.665316 5.713859 31.752911 6.046128 6.583291 -8.879209 0.000000 0.000000 0.000000 1.260508 2.247540 -6.636734 -0.974179 0.534764 -4.211122 0.058375 -2.262713 8.593558 0.001021 0.024933 -0.009263 -0.559849 -0.466333 12.017206 -4.156414 -2.104999 -5.427996 0.000000 0.000000 0.000000 1.322228 0.046686 9.400171 -9.660925 -2.772929 -1.304279 -56.788136 4.354678 9.463815 3.975055 -20.650348 15.560400 0.000000 0.000000 0.000000 -3.373162 1.608929 8.775506 22.883348 -2.839446 2.025954 59.883574 -6.403264 13.580163 -4.365704 30.746469 -4.385973 0.000000 0.000000 0.000000 
-37.665829 81.109535 78.739655 179.889329 11.029156 -179.915338 -4.105501 -0.777587 7.952499 7.781246 8.436615 -24.251963 5.475482 4.040880 29.338101 -4.218681 -8.699137 -6.969524 0.000000 0.000000 0.000000 -0.806418 -0.607362 7.426980 3.168716 1.248922 -24.586004 0.620682 5.338798 31.733906 5.373235 6.344240 -9.040800 0.000000 0.000000 0.000000 1.415107 1.718418 -5.932258 -0.920287 0.883605 -3.875231 -0.119672 -2.132068 8.617552 0.025471 0.022035 -0.017852 -0.730779 -0.359730 11.736005 -3.820419 -2.185449 -5.913557 0.000000 0.000000 0.000000 1.008921 0.248852 9.037019 -9.092916 -3.037921 -0.489336 -56.047221 1.561516 6.279368 4.244166 -19.586459 14.857393 0.000000 0.000000 0.000000 -3.485231 1.857500 8.446003 24.915839 -4.171591 1.658376 60.064308 -5.045792 13.079138 -4.284182 29.810118 -4.645562 0.000000 0.000000 0.000000 
-36.719353 81.060959 78.963715 179.909819 9.784524 -179.859098 -3.928108 -1.063290 8.636990 8.508477 7.297022 -24.969809 5.255005 3.519143 28.746248 -4.362444 -8.641639 -6.297016 0.000000 0.000000 0.000000 -0.399756 -0.692201 7.882618 3.558519 1.418484 -25.014485 0.443123 4.936541 31.609033 4.442340 5.721968 -9.375704 0.000000 0.000000 0.000000 1.738104 1.420738 -5.088221 -0.924627 1.007959 -3.329045 -0.245528 -2.060816 8.664938 0.049835 -0.004429 0.029136 -0.786909 -0.325518 11.264526 -3.374855 -2.282344 -6.430048 0.000000 0.000000 0.000000 0.817356 0.198969 8.657360 -8.685919 -3.358524 0.354952 -55.853797 -0.650072 3.529519 4.392828 -18.843790 14.479171 0.000000 0.000000 0.000000 -3.556282 1.840628 7.936798 26.611418 -5.204588 1.403859 59.255491 -3.521806 12.574762 -3.957364 28.310000 -4.628569 0.000000 0.000000 0.000000 
